<svg width="45" height="45" viewBox="0 0 45 45" fill="none" xmlns="http://www.w3.org/2000/svg">
<circle cx="22.5" cy="22.5" r="22.5" fill="#F5F6FA"/>
<path fill-rule="evenodd" clip-rule="evenodd" d="M17.7982 32.3957H26.4939C29.6879 32.3957 32.1383 31.242 31.4424 26.5987L30.6319 20.3057C30.2028 17.9888 28.725 17.1021 27.4282 17.1021H16.8257C15.5099 17.1021 14.1178 18.0555 13.622 20.3057L12.8115 26.5987C12.2204 30.7176 14.6041 32.3957 17.7982 32.3957Z" stroke="#1D1E20" stroke-width="1.5" stroke-linecap="round" stroke-linejoin="round"/>
<path d="M17.6552 16.8735C17.6552 14.388 19.67 12.3731 22.1555 12.3731C23.3524 12.368 24.502 12.8399 25.3501 13.6845C26.1982 14.529 26.675 15.6766 26.675 16.8735" stroke="#1D1E20" stroke-width="1.5" stroke-linecap="round" stroke-linejoin="round"/>
<path d="M19.0663 21.5645H19.114" stroke="#1D1E20" stroke-width="1.5" stroke-linecap="round" stroke-linejoin="round"/>
<path d="M25.1399 21.5645H25.1876" stroke="#1D1E20" stroke-width="1.5" stroke-linecap="round" stroke-linejoin="round"/>
</svg>
