<svg width="40" height="40" viewBox="0 0 40 40" fill="none" xmlns="http://www.w3.org/2000/svg">
<rect width="40" height="40" rx="8" fill="#1A4768"/>
<path d="M26.0997 29.9991H15.0457C14.5418 29.9991 14.0585 29.799 13.7022 29.4427C13.3459 29.0864 13.1458 28.6031 13.1458 28.0992V27.7883C11.967 27.5152 10.9155 26.8509 10.1627 25.9037C9.40982 24.9565 9 23.7822 9 22.5722C9 21.3622 9.40982 20.1879 10.1627 19.2407C10.9155 18.2935 11.967 17.6292 13.1458 17.3561V12.8999C13.1458 12.396 13.3459 11.9128 13.7022 11.5565C14.0585 11.2002 14.5418 11 15.0457 11H22.7628C23.0132 10.9995 23.2612 11.0488 23.4925 11.1448C23.7237 11.2409 23.9336 11.3819 24.11 11.5596L27.44 14.8896C27.622 15.0701 27.7654 15.2856 27.8616 15.5231C27.9578 15.7606 28.0047 16.0152 27.9996 16.2714V28.0992C27.9996 28.6031 27.7995 29.0864 27.4432 29.4427C27.0869 29.799 26.6036 29.9991 26.0997 29.9991ZM14.1821 27.9265V28.0992C14.1821 28.3283 14.2731 28.5479 14.435 28.7099C14.597 28.8718 14.8166 28.9628 15.0457 28.9628H26.0997C26.3288 28.9628 26.5484 28.8718 26.7104 28.7099C26.8723 28.5479 26.9633 28.3283 26.9633 28.0992V16.8725H24.0271C23.5232 16.8725 23.0399 16.6723 22.6836 16.316C22.3273 15.9597 22.1272 15.4764 22.1272 14.9725V12.0363H15.0457C14.8166 12.0363 14.597 12.1273 14.435 12.2893C14.2731 12.4512 14.1821 12.6709 14.1821 12.8999V17.2179H14.3548C15.7748 17.2179 17.1367 17.782 18.1409 18.7861C19.145 19.7903 19.7091 21.1522 19.7091 22.5722C19.7091 23.9922 19.145 25.3541 18.1409 26.3583C17.1367 27.3624 15.7748 27.9265 14.3548 27.9265H14.1821ZM14.3548 18.2542C13.5008 18.2542 12.6659 18.5075 11.9559 18.9819C11.2458 19.4564 10.6923 20.1308 10.3655 20.9198C10.0387 21.7088 9.95317 22.577 10.1198 23.4146C10.2864 24.2522 10.6976 25.0216 11.3015 25.6255C11.9054 26.2294 12.6748 26.6406 13.5124 26.8072C14.35 26.9738 15.2182 26.8883 16.0072 26.5615C16.7962 26.2347 17.4706 25.6812 17.9451 24.9711C18.4195 24.2611 18.6728 23.4262 18.6728 22.5722C18.6728 21.427 18.2178 20.3287 17.4081 19.5189C16.5983 18.7091 15.5 18.2542 14.3548 18.2542ZM23.1635 12.133V14.9725C23.1635 15.2016 23.2545 15.4212 23.4164 15.5832C23.5784 15.7452 23.798 15.8361 24.0271 15.8361H26.8666C26.8238 15.7577 26.7704 15.6856 26.7077 15.622L23.3777 12.2919C23.314 12.2293 23.2419 12.1758 23.1635 12.133ZM24.718 25.163H21.2636C21.1261 25.163 20.9943 25.1084 20.8972 25.0112C20.8 24.9141 20.7454 24.7823 20.7454 24.6448C20.7454 24.5074 20.8 24.3756 20.8972 24.2784C20.9943 24.1813 21.1261 24.1267 21.2636 24.1267H24.718C24.8554 24.1267 24.9872 24.1813 25.0844 24.2784C25.1815 24.3756 25.2361 24.5074 25.2361 24.6448C25.2361 24.7823 25.1815 24.9141 25.0844 25.0112C24.9872 25.1084 24.8554 25.163 24.718 25.163ZM13.3185 24.1267C13.1852 24.1165 13.0612 24.0545 12.973 23.954C12.8881 23.859 12.8411 23.736 12.8411 23.6085C12.8411 23.4811 12.8881 23.3581 12.973 23.2631L13.8574 22.3788V20.4996C13.8574 20.3621 13.912 20.2303 14.0091 20.1332C14.1063 20.036 14.2381 19.9814 14.3755 19.9814C14.5129 19.9814 14.6447 20.036 14.7419 20.1332C14.8391 20.2303 14.8937 20.3621 14.8937 20.4996V22.5722C14.8936 22.7096 14.8389 22.8413 14.7417 22.9384L13.6639 23.954C13.5758 24.0545 13.4518 24.1165 13.3185 24.1267ZM24.718 22.3995H21.9544C21.817 22.3995 21.6852 22.3449 21.5881 22.2477C21.4909 22.1505 21.4363 22.0187 21.4363 21.8813C21.4363 21.7439 21.4909 21.6121 21.5881 21.5149C21.6852 21.4178 21.817 21.3632 21.9544 21.3632H24.718C24.8554 21.3632 24.9872 21.4178 25.0844 21.5149C25.1815 21.6121 25.2361 21.7439 25.2361 21.8813C25.2361 22.0187 25.1815 22.1505 25.0844 22.2477C24.9872 22.3449 24.8554 22.3995 24.718 22.3995ZM24.718 19.636H21.2636C21.1261 19.636 20.9943 19.5814 20.8972 19.4842C20.8 19.387 20.7454 19.2552 20.7454 19.1178C20.7454 18.9804 20.8 18.8486 20.8972 18.7514C20.9943 18.6542 21.1261 18.5997 21.2636 18.5997H24.718C24.8554 18.5997 24.9872 18.6542 25.0844 18.7514C25.1815 18.8486 25.2361 18.9804 25.2361 19.1178C25.2361 19.2552 25.1815 19.387 25.0844 19.4842C24.9872 19.5814 24.8554 19.636 24.718 19.636ZM19.8818 16.8725H17.8092C17.6718 16.8725 17.54 16.8179 17.4428 16.7207C17.3456 16.6235 17.291 16.4917 17.291 16.3543C17.291 16.2169 17.3456 16.0851 17.4428 15.9879C17.54 15.8907 17.6718 15.8361 17.8092 15.8361H19.8818C20.0192 15.8361 20.151 15.8907 20.2482 15.9879C20.3454 16.0851 20.4 16.2169 20.4 16.3543C20.4 16.4917 20.3454 16.6235 20.2482 16.7207C20.151 16.8179 20.0192 16.8725 19.8818 16.8725Z" fill="white"/>
</svg>
