<svg width="92" height="41" viewBox="0 0 92 41" fill="none" xmlns="http://www.w3.org/2000/svg">
<rect x="0.5" y="0.5" width="91" height="40" rx="9.5" fill="white"/>
<rect x="0.5" y="0.5" width="91" height="40" rx="9.5" stroke="#8BBE2E"/>
<path d="M18.3333 28.0001V22.1667" stroke="black" stroke-width="1.5" stroke-linecap="round" stroke-linejoin="round"/>
<path d="M18.3333 18.8333V13" stroke="black" stroke-width="1.5" stroke-linecap="round" stroke-linejoin="round"/>
<path d="M25 28V20.5" stroke="black" stroke-width="1.5" stroke-linecap="round" stroke-linejoin="round"/>
<path d="M25 17.1667V13" stroke="black" stroke-width="1.5" stroke-linecap="round" stroke-linejoin="round"/>
<path d="M31.6667 27.9999V23.8333" stroke="black" stroke-width="1.5" stroke-linecap="round" stroke-linejoin="round"/>
<path d="M31.6667 20.5V13" stroke="black" stroke-width="1.5" stroke-linecap="round" stroke-linejoin="round"/>
<path d="M15.8333 22.1667H20.8333" stroke="black" stroke-width="1.5" stroke-linecap="round" stroke-linejoin="round"/>
<path d="M22.5 17.1667H27.5" stroke="black" stroke-width="1.5" stroke-linecap="round" stroke-linejoin="round"/>
<path d="M29.1667 23.8333H34.1667" stroke="black" stroke-width="1.5" stroke-linecap="round" stroke-linejoin="round"/>
<path d="M44.05 25.5V15.7H50.014V16.666H45.226V20.11H49.3V21.062H45.226V25.5H44.05ZM51.7842 25.5V18.444H52.9602V25.5H51.7842ZM52.3722 16.946C52.1389 16.946 51.9429 16.8713 51.7842 16.722C51.6349 16.5633 51.5602 16.3673 51.5602 16.134C51.5602 15.9007 51.6349 15.714 51.7842 15.574C51.9429 15.4247 52.1389 15.35 52.3722 15.35C52.5962 15.35 52.7875 15.4247 52.9462 15.574C53.1049 15.714 53.1842 15.9007 53.1842 16.134C53.1842 16.3673 53.1049 16.5633 52.9462 16.722C52.7875 16.8713 52.5962 16.946 52.3722 16.946ZM55.2355 25.5V15.42H56.4115V25.5H55.2355ZM61.3247 25.5C60.9047 25.5 60.5407 25.4347 60.2327 25.304C59.9247 25.1733 59.6867 24.954 59.5187 24.646C59.36 24.3287 59.2807 23.904 59.2807 23.372V19.438H58.0487V18.444H59.2807L59.4347 16.736H60.4567V18.444H62.5007V19.438H60.4567V23.372C60.4567 23.8107 60.5453 24.1093 60.7227 24.268C60.9 24.4173 61.2127 24.492 61.6607 24.492H62.4167V25.5H61.3247ZM67.1377 25.668C66.475 25.668 65.887 25.514 65.3737 25.206C64.8697 24.898 64.473 24.4687 64.1837 23.918C63.8943 23.358 63.7497 22.7093 63.7497 21.972C63.7497 21.2253 63.8897 20.5767 64.1697 20.026C64.459 19.4753 64.8603 19.046 65.3737 18.738C65.8963 18.43 66.4937 18.276 67.1657 18.276C67.8563 18.276 68.4397 18.43 68.9157 18.738C69.401 19.046 69.7697 19.452 70.0217 19.956C70.283 20.4507 70.4137 20.9967 70.4137 21.594C70.4137 21.6873 70.4137 21.7853 70.4137 21.888C70.4137 21.9907 70.409 22.1073 70.3997 22.238H64.6317V21.328H69.2657C69.2377 20.684 69.023 20.18 68.6217 19.816C68.2297 19.452 67.735 19.27 67.1377 19.27C66.7363 19.27 66.363 19.3633 66.0177 19.55C65.6817 19.7273 65.411 19.9933 65.2057 20.348C65.0003 20.6933 64.8977 21.1273 64.8977 21.65V22.042C64.8977 22.6207 65.0003 23.106 65.2057 23.498C65.4203 23.89 65.6957 24.184 66.0317 24.38C66.377 24.576 66.7457 24.674 67.1377 24.674C67.6323 24.674 68.0383 24.5667 68.3557 24.352C68.6823 24.128 68.9157 23.8293 69.0557 23.456H70.2177C70.1057 23.876 69.9097 24.254 69.6297 24.59C69.3497 24.926 68.9997 25.192 68.5797 25.388C68.169 25.5747 67.6883 25.668 67.1377 25.668ZM72.2007 25.5V18.444H73.2647L73.3487 19.788C73.5074 19.4707 73.708 19.2 73.9507 18.976C74.2027 18.752 74.5014 18.5793 74.8467 18.458C75.2014 18.3367 75.6027 18.276 76.0507 18.276V19.508H75.6167C75.318 19.508 75.0334 19.55 74.7627 19.634C74.492 19.7087 74.2494 19.8347 74.0347 20.012C73.8294 20.1893 73.666 20.432 73.5447 20.74C73.4327 21.0387 73.3767 21.412 73.3767 21.86V25.5H72.2007Z" fill="black"/>
</svg>
