<svg width="22" height="21" viewBox="0 0 22 21" fill="none" xmlns="http://www.w3.org/2000/svg">
<path d="M21.1956 7.4323L13.3346 0.847778C11.9851 -0.282593 10.0166 -0.282593 8.667 0.847778L0.805985 7.4323C-0.148168 8.23172 -0.27281 9.65435 0.526616 10.6042C0.922031 11.077 1.49366 11.365 2.10398 11.4036V17.8076C2.10398 19.0455 3.10971 20.0512 4.35183 20.0555H9.18276V14.5111C9.18276 13.5097 9.99508 12.6973 10.9965 12.6973C11.9979 12.6973 12.8103 13.5097 12.8103 14.5111V20.0598H17.6455C18.8833 20.0598 19.889 19.0541 19.8933 17.8119V11.4079C21.1355 11.3263 22.0767 10.2518 21.9951 9.00966C21.9521 8.39934 21.6641 7.82771 21.1956 7.4323ZM19.7472 10.5526H19.0338V17.8119C19.0338 18.577 18.4148 19.2002 17.6455 19.2002H13.6699V14.5111C13.6699 13.0326 12.4707 11.8377 10.9965 11.8377C9.51801 11.8377 8.32317 13.0369 8.32317 14.5111V19.2002H4.35183C3.58678 19.2002 2.96357 18.5813 2.96357 17.8162V10.5526H2.25441C0.952117 10.5526 0.363292 8.92799 1.36043 8.08989L9.22145 1.50537C10.253 0.641475 11.753 0.641475 12.7845 1.50537L20.6412 8.09418C21.6383 8.92799 21.0495 10.5526 19.7472 10.5526Z" fill="#8F959E"/>
</svg>
