<svg width="18" height="21" viewBox="0 0 18 21" fill="none" xmlns="http://www.w3.org/2000/svg">
<path d="M7.875 0.831982C5.57812 1.22573 3.60469 2.71636 2.60625 4.80698C2.12344 5.81948 1.99688 6.38198 1.73438 8.74917C1.63125 9.67261 1.52344 10.5257 1.49063 10.6476C1.40625 11.0039 1.15781 11.496 0.871875 11.871C0.426563 12.457 0.234375 12.982 0.234375 13.6289C0.234375 14.3742 0.496875 14.9976 1.03125 15.5273C1.40625 15.9023 1.71094 16.0851 2.18438 16.207C2.59688 16.3148 15.4031 16.3148 15.8156 16.207C16.2891 16.0851 16.5938 15.9023 16.9688 15.5273C17.5031 14.9976 17.7656 14.3742 17.7656 13.6289C17.7656 12.982 17.5734 12.457 17.1281 11.871C16.8422 11.496 16.5938 11.0039 16.5094 10.6476C16.4766 10.5257 16.3688 9.67261 16.2656 8.74917C16.1625 7.82104 16.0359 6.84604 15.9797 6.57417C15.6984 5.13511 15.0234 3.87417 13.9688 2.82417C12.8766 1.73198 11.6063 1.07573 10.125 0.831982C9.58594 0.747607 8.37656 0.747607 7.875 0.831982ZM9.975 2.38354C11.6344 2.67886 13.1156 3.79448 13.9219 5.35542C14.3813 6.25542 14.4609 6.60698 14.7188 8.87104C14.8219 9.78511 14.9297 10.657 14.9531 10.8023C15.0703 11.4351 15.3609 12.0867 15.8016 12.7007C15.9563 12.9117 16.1109 13.1601 16.1484 13.2492C16.3734 13.7835 16.0266 14.5101 15.4734 14.6789C15.2156 14.7539 2.78438 14.7539 2.52656 14.6789C1.97344 14.5101 1.62656 13.7835 1.85156 13.2492C1.88906 13.1601 2.04375 12.9117 2.19844 12.7007C2.63906 12.0867 2.92969 11.4351 3.04688 10.8023C3.07031 10.657 3.17813 9.78511 3.28125 8.87104C3.38438 7.95698 3.50156 7.05229 3.53906 6.86479C3.80625 5.54761 4.60313 4.25386 5.63906 3.46167C6.91875 2.48198 8.42813 2.10698 9.975 2.38354Z" fill="#A49EB5"/>
<path d="M5.63442 16.8258C5.40473 16.9383 5.28285 17.1398 5.25942 17.4539C5.24067 17.6836 5.25942 17.7727 5.38129 18.0305C5.59692 18.4898 5.8641 18.8508 6.24848 19.2117C7.02192 19.9289 7.8891 20.2617 9.00004 20.2617C10.111 20.2617 10.9782 19.9289 11.7516 19.2117C12.3235 18.6773 12.75 17.9602 12.75 17.5289C12.75 17.0602 12.4969 16.7836 12.0516 16.7602C11.6485 16.732 11.4657 16.8586 11.2313 17.332C10.786 18.2227 9.99379 18.7148 9.00004 18.7148C8.00629 18.7148 7.2141 18.2227 6.76879 17.332C6.61879 17.032 6.54379 16.9383 6.39379 16.8539C6.17348 16.7273 5.85473 16.7133 5.63442 16.8258Z" fill="#A49EB5"/>
</svg>
