<svg width="40" height="40" viewBox="0 0 40 40" fill="none" xmlns="http://www.w3.org/2000/svg">
<rect width="40" height="40" rx="8" fill="#1A4768"/>
<path d="M23.3634 18.6712C23.3634 18.286 23.0512 17.9738 22.666 17.9738H15.483C15.0979 17.9738 14.7856 18.286 14.7856 18.6712C14.7856 19.0563 15.0979 19.3685 15.483 19.3685H22.666C23.0512 19.3685 23.3634 19.0563 23.3634 18.6712ZM15.483 20.7633C15.0979 20.7633 14.7856 21.0755 14.7856 21.4607C14.7856 21.8459 15.0979 22.1581 15.483 22.1581H19.8455C20.2307 22.1581 20.5429 21.8459 20.5429 21.4607C20.5429 21.0755 20.2307 20.7633 19.8455 20.7633H15.483Z" fill="white"/>
<path d="M17.1219 27.4582H14.7895C14.0205 27.4582 13.3948 26.8325 13.3948 26.0634V13.7895C13.3948 13.0205 14.0205 12.3948 14.7895 12.3948H23.3634C24.1325 12.3948 24.7582 13.0205 24.7582 13.7895V18.0784C24.7582 18.4636 25.0704 18.7758 25.4556 18.7758C25.8407 18.7758 26.153 18.4636 26.153 18.0784V13.7895C26.153 12.2514 24.9016 11 23.3634 11H14.7895C13.2514 11 12 12.2514 12 13.7895V26.0634C12 27.6016 13.2514 28.8529 14.7895 28.8529H17.1219C17.507 28.8529 17.8193 28.5407 17.8193 28.1556C17.8193 27.7704 17.507 27.4582 17.1219 27.4582Z" fill="white"/>
<path d="M27.3882 21.097C26.5725 20.2813 25.2452 20.2813 24.43 21.0965L20.6013 24.9167C20.52 24.9978 20.46 25.0978 20.4266 25.2077L19.5928 27.9528C19.5565 28.0722 19.5529 28.1993 19.5825 28.3206C19.6121 28.4419 19.6737 28.5531 19.7609 28.6424C19.8481 28.7318 19.9577 28.7962 20.0782 28.8287C20.1988 28.8613 20.3259 28.8608 20.4462 28.8275L23.261 28.0478C23.3769 28.0157 23.4824 27.9542 23.5675 27.8693L27.3882 24.0558C28.2039 23.2401 28.2039 21.9128 27.3882 21.097ZM22.712 26.7526L21.2959 27.1449L21.7103 25.7805L24.2937 23.2028L25.2801 24.1893L22.712 26.7526ZM26.4025 23.0691L26.2674 23.204L25.2811 22.2177L25.4157 22.0833C25.6877 21.8114 26.1301 21.8114 26.402 22.0833C26.6739 22.3552 26.6739 22.7976 26.4025 23.0691ZM22.666 15.1842H15.483C15.0979 15.1842 14.7856 15.4964 14.7856 15.8816C14.7856 16.2667 15.0979 16.579 15.483 16.579H22.666C23.0512 16.579 23.3634 16.2667 23.3634 15.8816C23.3634 15.4964 23.0512 15.1842 22.666 15.1842Z" fill="white"/>
</svg>
