<svg width="40" height="40" viewBox="0 0 40 40" fill="none" xmlns="http://www.w3.org/2000/svg">
<rect width="40" height="40" rx="8" fill="#1A4768"/>
<path d="M28.5 18.3711V27.5C28.5 28.0967 28.2629 28.669 27.841 29.091C27.419 29.5129 26.8467 29.75 26.25 29.75H15.75C15.1533 29.75 14.581 29.5129 14.159 29.091C13.7371 28.669 13.5 28.0967 13.5 27.5V12.5C13.5 11.9033 13.7371 11.331 14.159 10.909C14.581 10.4871 15.1533 10.25 15.75 10.25H20.3789C20.7766 10.2501 21.158 10.408 21.4392 10.6892L28.0608 17.3108C28.342 17.592 28.4999 17.9734 28.5 18.3711Z" stroke="white" stroke-width="1.5" stroke-linejoin="round"/>
<path d="M21 10.625V16.25C21 16.6478 21.158 17.0294 21.4393 17.3107C21.7206 17.592 22.1022 17.75 22.5 17.75H28.125M17.25 21.5H24.75M17.25 25.25H24.75" stroke="white" stroke-width="1.5" stroke-linecap="round" stroke-linejoin="round"/>
</svg>
