<svg width="40" height="40" viewBox="0 0 40 40" fill="none" xmlns="http://www.w3.org/2000/svg">
<rect width="40" height="40" rx="8" fill="#1A4768"/>
<path d="M11.8906 25C11.2812 23.4531 10.25 20.6233 10.25 19C10.25 13.615 14.9998 9.25 20 9.25C25.0002 9.25 29.75 13.615 29.75 19C29.75 20.6233 28.6719 23.5469 28.1094 25" stroke="white" stroke-width="1.5" stroke-linecap="round" stroke-linejoin="round"/>
<path d="M13.0808 19.6624L12.439 20.0374C11.022 20.867 10.9531 23.4316 12.2806 25.7655C13.6081 28.0994 15.837 29.3191 17.254 28.4899L17.8958 28.1149C18.0661 28.0134 18.1899 27.8493 18.2405 27.6576C18.2912 27.4659 18.2647 27.262 18.1667 27.0897L14.0937 19.9375C14.0457 19.8525 13.9813 19.7779 13.9042 19.7179C13.8271 19.658 13.7389 19.614 13.6447 19.5884C13.5505 19.5628 13.4521 19.5561 13.3553 19.5688C13.2585 19.5815 13.1652 19.6133 13.0808 19.6624V19.6624ZM26.9192 19.6624L27.5609 20.0374C28.9779 20.8666 29.0487 23.4311 27.7194 25.765C26.39 28.0989 24.1629 29.3186 22.7459 28.4894L22.1042 28.1144C21.9339 28.013 21.8101 27.8488 21.7594 27.6571C21.7088 27.4655 21.7353 27.2616 21.8333 27.0892L25.9062 19.9375C25.9542 19.8525 26.0187 19.7779 26.0957 19.7179C26.1728 19.658 26.261 19.614 26.3552 19.5884C26.4495 19.5628 26.5478 19.5561 26.6446 19.5688C26.7414 19.5815 26.8348 19.6133 26.9192 19.6624V19.6624Z" stroke="white" stroke-width="1.5" stroke-miterlimit="10"/>
</svg>
