<svg width="40" height="40" viewBox="0 0 40 40" fill="none" xmlns="http://www.w3.org/2000/svg">
<rect width="40" height="40" rx="8" fill="#1A4768"/>
<path d="M28.4913 18.2656C28.4907 18.2652 28.4903 18.2646 28.4898 18.2641L20.7379 10.5126C20.4075 10.1819 19.9682 10 19.5009 10C19.0336 10 18.5943 10.1819 18.2638 10.5125L10.5159 18.2602C10.5133 18.2628 10.5105 18.2656 10.5081 18.2682C9.8295 18.9506 9.83069 20.0579 10.5114 20.7386C10.8224 21.0497 11.2329 21.2298 11.6721 21.2488C11.6901 21.2505 11.7081 21.2514 11.7262 21.2514H12.035V26.956C12.035 28.085 12.9536 29.0035 14.0826 29.0035H17.1154C17.423 29.0035 17.6722 28.7541 17.6722 28.4467V23.9743C17.6722 23.4591 18.0913 23.0401 18.6065 23.0401H20.3953C20.9105 23.0401 21.3294 23.4592 21.3294 23.9743V28.4468C21.3294 28.7541 21.5787 29.0035 21.8862 29.0035H24.919C26.0481 29.0035 26.9666 28.085 26.9666 26.956V21.2514H27.2531C27.7203 21.2514 28.1596 21.0694 28.4903 20.7387C29.1717 20.057 29.172 18.9477 28.4913 18.2656L28.4913 18.2656ZM27.7028 19.9515C27.6439 20.0108 27.5739 20.0578 27.4967 20.0898C27.4195 20.1218 27.3367 20.1382 27.2531 20.138H26.4098C26.1023 20.138 25.8531 20.3872 25.8531 20.6947V26.956C25.8531 27.471 25.4341 27.89 24.9189 27.89H22.4429V23.9743C22.4429 22.8453 21.5244 21.9266 20.3953 21.9266H18.6065C17.4774 21.9266 16.5587 22.8453 16.5587 23.9743V27.89H14.0827C13.5677 27.89 13.1485 27.471 13.1485 26.956V20.6947C13.1485 20.3871 12.8993 20.1379 12.5918 20.1379H11.763C11.7543 20.1373 11.7456 20.1369 11.7369 20.1367C11.5711 20.1338 11.4155 20.068 11.299 19.9513C11.051 19.7034 11.051 19.2999 11.299 19.0518C11.2991 19.0518 11.2991 19.0517 11.2992 19.0515L11.2997 19.0511L19.0513 11.2998C19.1102 11.2405 19.1802 11.1935 19.2574 11.1616C19.3346 11.1296 19.4174 11.1132 19.5009 11.1135C19.6707 11.1135 19.8303 11.1796 19.9505 11.2998L27.7004 19.0495L27.704 19.053C27.9506 19.3014 27.9502 19.704 27.7028 19.9515Z" fill="white"/>
</svg>
